<svg id="Layer_1" data-name="Layer 1" xmlns="http://www.w3.org/2000/svg" xmlns:xlink="http://www.w3.org/1999/xlink" viewBox="0 0 462.81 420.22"><defs><style>.cls-1{fill:url(#Áåçûìÿííûé_ãðàäèåíò_302);}.cls-2{fill:url(#Áåçûìÿííûé_ãðàäèåíò_302-2);}.cls-3{fill:#36d1f7;opacity:0.6;}</style><linearGradient id="Áåçûìÿííûé_ãðàäèåíò_302" x1="223.35" y1="184.77" x2="462.81" y2="184.77" gradientUnits="userSpaceOnUse"><stop offset="0" stop-color="#459fff"/><stop offset="1" stop-color="#a96dff"/></linearGradient><linearGradient id="Áåçûìÿííûé_ãðàäèåíò_302-2" x1="0" y1="288.94" x2="426.76" y2="288.94" xlink:href="#Áåçûìÿííûé_ãðàäèåíò_302"/></defs><path class="cls-1" d="M458.74,177.6c-7.93-6.24-28.52-25.49-30.34-58.46a70.63,70.63,0,0,0-17.16-42.66l-5.54,3.34L424.25,53.9a17.16,17.16,0,0,1-15.67-6.34c11.75,5.57,19.13.41,22.53-3.25l17.3-24.18a8.74,8.74,0,0,1-7.84-3.07c6,2.68,9.67,0,11.37-1.87L462.81,0,432.64,22.26c-2.86,2.71-6.77,8.47-2.45,17.58a13.45,13.45,0,0,1-5-12.08l-24,17.73c-3.62,3.55-8.26,10.82-2.88,22.18a17.2,17.2,0,0,1-6.38-15.35L381.43,60l1.18-3.66a83.68,83.68,0,0,0-9.26-3.06,54.69,54.69,0,0,1-4.67,9.59c8.33-19.35,5-50.31,5-50.31C320.77,36.32,322,70.29,322,70.36h0s-1.5-6.88,1.35-17.47c-76.64,13.5-60.95,72.47-100,106.75.43-.13,27.74-8.9,38-23.21-16.47,24.12-37.93,69.64-.17,107.41,54,54,28.3,63.4,28.3,63.4s47.18-5.24-2-75.37c0,0,66.41,35.78,81.78,71.51,14.21,33,1.12,57.42-40.49,64.16,0,0,35.1,8.65,64.34-10.05C427.75,335.35,427,289.35,409,257.65c-9.62-17-21.28-30.17-33.85-44.89-23.89-28-32.11-38.34-38.17-55-7.22-19.86,3.64-38.87,3.84-39.29-6.94,26.52,3.64,40.3,8.35,44.88.61.55,1.28,1.13,2,1.75l0,0c6.46,5.31,18.2,12.91,39.11,21.66C414.6,197,412.61,218.63,427,218.57c9.1,0,11.31-5.42,11.81-8.63a16.76,16.76,0,0,1-7.63-10.74c5.39,10.14,16.48,8.91,18.57,8.59l.1,0,.1,0a15.94,15.94,0,0,0,10.62-7.34c2.67-4.41,2.49-11.43,2-16A10,10,0,0,0,458.74,177.6Zm-60.48-52.26a9.46,9.46,0,0,0,.78-3.79,7.74,7.74,0,0,0-.27-2.3s-6.11,1.3-9.07-.47c-5.37-3.22-5.37-13.67-5.37-13.67C407.93,109.55,398.69,124.66,398.26,125.34Z"/><path class="cls-2" d="M426.76,342.07l-.59,1.42c-.19.47-.44,1.06-.73,1.75s-.69,1.47-1.11,2.37-.93,1.88-1.5,3-1.23,2.24-2,3.5c-.35.63-.75,1.26-1.17,1.93s-.83,1.35-1.3,2l-1.47,2.13c-.5.74-1.06,1.46-1.62,2.22a88.82,88.82,0,0,1-8.3,9.45c-.82.8-1.66,1.63-2.56,2.43l-1.35,1.22-1.42,1.2c-.48.39-1,.81-1.46,1.21l-1.52,1.19c-1,.81-2.11,1.55-3.2,2.35-.55.4-1.12.76-1.69,1.15s-1.14.77-1.72,1.14l-1.8,1.1c-.3.19-.6.38-.91.56l-.93.53L386.56,387c-.64.35-1.29.69-1.95,1-1.3.71-2.67,1.32-4,2a108.71,108.71,0,0,1-18.06,6.47,134.07,134.07,0,0,1-42.91,3.82,164.83,164.83,0,0,1-47-10.32,167.94,167.94,0,0,1-23.23-10.84q-5.67-3.24-11.19-7c-.92-.61-1.82-1.26-2.73-1.91l-.68-.49-.34-.24-.51-.39-1.22-.92-2.44-1.85-.32-.25-.35-.28-.68-.55-1.36-1.12c-1.87-1.49-3.5-3-5.18-4.45-.85-.73-1.65-1.51-2.47-2.27l-2.44-2.31-2.36-2.36c-.79-.79-1.58-1.58-2.34-2.4L210.52,348c-.77-.81-1.48-1.66-2.22-2.48s-1.48-1.66-2.2-2.5L204,340.46l-1.07-1.27-1-1.29-2.07-2.58c-.68-.87-1.33-1.74-2-2.61s-1.35-1.74-2-2.63c-1.29-1.76-2.6-3.51-3.84-5.3-5-7.11-9.71-14.38-14.07-21.61q-1.62-2.69-3.24-5.34l-3.18-5.32q-3.15-5.25-6.28-10.46t-6.25-10.19c-2.07-3.36-4.18-6.62-6.31-9.84s-4.27-6.34-6.46-9.4l-1.65-2.27-.41-.56-.05-.07-.11-.14-.22-.3-.88-1.18-.44-.58L142,247l-.8-1c-.53-.69-1.12-1.42-1.68-2.12a174.57,174.57,0,0,0-29.89-29.25A136.11,136.11,0,0,0,77.18,196a99.11,99.11,0,0,0-30.91-7,88.83,88.83,0,0,0-24.94,2.16A101.69,101.69,0,0,0,5.49,196.3l-2.37,1c-.69.29-1.25.57-1.72.77l-1.4.64,1.16-1c.39-.33.86-.75,1.45-1.23l2.05-1.63c.79-.59,1.68-1.26,2.67-2s2.1-1.47,3.33-2.23,2.56-1.59,4-2.43L16.94,187c.79-.41,1.62-.81,2.46-1.23a83.06,83.06,0,0,1,11.72-4.61c1.11-.33,2.24-.68,3.41-1s2.36-.59,3.58-.86c.61-.15,1.23-.26,1.86-.39s1.26-.26,1.9-.36c1.29-.21,2.6-.42,3.94-.58A101.41,101.41,0,0,1,82,180.14a137.7,137.7,0,0,1,39.67,16.62,173.38,173.38,0,0,1,37,30.46c.71.78,1.4,1.53,2.12,2.34l1.08,1.22.54.62.48.56,1,1.12.24.28.13.14.18.23.5.6,2,2.42c2.6,3.24,5.18,6.54,7.64,9.91s4.9,6.78,7.25,10.22,4.65,6.93,6.92,10.41,4.48,7,6.7,10.5,4.38,7,6.57,10.46l1.63,2.57,1.63,2.55c1.09,1.68,2.18,3.37,3.28,5.05s2.2,3.34,3.33,5l1.69,2.47,1.71,2.43c4.55,6.49,9.34,12.69,14.35,18.53,2.49,2.93,5.09,5.71,7.7,8.45l2,2c.67.66,1.33,1.34,2,2,1.37,1.26,2.74,2.6,4,3.7l2,1.75,2.38,1.93,1.18,1,.15.12c.23.18-.15-.11-.06,0l.28.21.54.42c.73.56,1.45,1.13,2.2,1.67,2.94,2.21,6,4.29,9.08,6.25s6.26,3.83,9.47,5.56,6.46,3.36,9.74,4.85A163.11,163.11,0,0,0,322.06,379a131.61,131.61,0,0,0,37.31,1.29,108.13,108.13,0,0,0,16.37-3.16,98.93,98.93,0,0,0,14.23-5.2c1.08-.52,2.16-1,3.18-1.55l1.55-.78,1.49-.82c.49-.28,1-.54,1.46-.82l1.42-.85c.94-.54,1.84-1.13,2.72-1.7a95.13,95.13,0,0,0,9.35-6.95c2.72-2.28,5-4.5,7-6.49,1-1,1.88-1.94,2.67-2.83s1.54-1.69,2.15-2.43l1.67-2c.47-.58.87-1.07,1.18-1.47Z"/><path class="cls-3" d="M312.21,412.21s-1.35.59-3.91,1.61c-1.3.45-2.93,1.08-4.86,1.65-1,.29-2,.61-3.12.93l-3.6.91A110,110,0,0,1,278,420l-2.81.15-2.89.05-1.49,0-1.5,0-3.08-.05c-2.07-.1-4.2-.18-6.38-.38s-4.4-.43-6.68-.69c-4.53-.6-9.24-1.43-14.07-2.53l-3.65-.88-3.68-1c-2.46-.7-5-1.46-7.46-2.32a156,156,0,0,1-30.34-14L190.17,396q-1.86-1.22-3.72-2.47l-3.67-2.6L181,389.56l-.91-.68-.45-.34-.23-.18-.11-.08L179,388l-3.25-2.64c-.52-.41-1.15-1-1.75-1.5l-1.82-1.59-.9-.8-.45-.4-.42-.4-1.68-1.59-1.67-1.6c-.56-.54-1.09-1.09-1.63-1.64-2.2-2.17-4.26-4.46-6.33-6.75l-3-3.5c-1-1.18-1.94-2.38-2.91-3.58l-.73-.89-.7-.91-1.4-1.83c-.47-.61-.94-1.21-1.4-1.83l-1.35-1.85c-.89-1.24-1.8-2.48-2.65-3.74s-1.75-2.5-2.58-3.77q-5.06-7.59-9.5-15.36l-1.12-1.94L130.61,328c-.73-1.3-1.44-2.59-2.13-3.89s-1.39-2.59-2.08-3.88-1.33-2.51-2-3.79c-5.3-10.16-10.19-20.05-15.07-29.4-1.23-2.33-2.44-4.64-3.65-6.91s-2.45-4.48-3.66-6.68l-1.84-3.25L98.34,267l-1.86-3.12-.23-.38-.06-.1c-.1-.16.09.11,0,0l-.13-.2-.5-.79-1-1.59c-1.35-2.21-2.55-3.92-3.76-5.81-.29-.46-.63-.93-1-1.39s-.65-.93-1-1.39l-1-1.38c-.31-.46-.64-.91-1-1.36-1.32-1.78-2.59-3.56-3.93-5.24l-2-2.53c-.68-.81-1.34-1.61-2-2.42a197.62,197.62,0,0,0-15.45-16.76c-4.92-4.75-9.53-8.65-13.43-11.79s-7.18-5.44-9.43-7-3.47-2.4-3.47-2.4,1.44.27,4.15.88c1.37.27,3,.76,4.94,1.31s4.13,1.32,6.61,2.16a128.35,128.35,0,0,1,17.17,7.91,143.66,143.66,0,0,1,20.5,13.84c.89.71,1.79,1.43,2.69,2.17s1.76,1.54,2.66,2.32c1.82,1.53,3.54,3.23,5.35,4.91.91.84,1.76,1.74,2.65,2.63l1.32,1.35c.45.46.9.9,1.34,1.39,1.76,1.9,3.66,4,5.2,5.8.41.47.82.94,1.22,1.42l.62.71.15.18s.24.33.18.23l.08.1.31.38,2.48,3.1,2.47,3.17,2.41,3.25,2.4,3.3,2.35,3.38c1.56,2.26,3.11,4.55,4.62,6.89,6.07,9.31,11.85,19.08,17.5,28.82l4.24,7.28c.7,1.21,1.43,2.39,2.13,3.58l1.06,1.79,1.08,1.77c2.88,4.73,5.79,9.42,8.84,13.95a221.08,221.08,0,0,0,19.45,25.43c.43.48.86,1,1.3,1.45l1.33,1.4,1.32,1.4.33.35.33.32.63.64,1.28,1.29c.43.43.8.84,1.36,1.33,1,1,2.05,1.9,3.07,2.85l2.65,2.36,2.89,2.43c1,.77,2,1.56,2.94,2.35l3,2.27a178.79,178.79,0,0,0,24.62,15.31c4.14,2.13,8.25,4.09,12.31,5.81s8.06,3.26,12,4.63,7.69,2.49,11.34,3.51,7.18,1.85,10.52,2.5a151.56,151.56,0,0,0,17.62,2.59l3.54.27L303,412c1,.07,1.88.07,2.71.09l2.28.07C310.73,412.18,312.21,412.21,312.21,412.21Z"/><path class="cls-3" d="M360,343.76l-.78.41c-.52.27-1.3.66-2.34,1.13-.51.23-1.09.49-1.74.76s-1.36.54-2.14.83c-1.55.58-3.37,1.19-5.44,1.76a79.28,79.28,0,0,1-15.4,2.59,94.76,94.76,0,0,1-20.49-.85A109.54,109.54,0,0,1,288,344.05a113.22,113.22,0,0,1-24.42-13.18c-1-.71-2-1.44-3-2.19l-1.46-1.14-.73-.58-.36-.29-.09-.07-.18-.16-.16-.13-1.29-1.06-1.5-1.31c-1-.86-1.88-1.69-2.8-2.56-1.84-1.72-3.61-3.53-5.33-5.37-.86-.93-1.71-1.86-2.54-2.8s-1.65-1.92-2.45-2.89A168.51,168.51,0,0,1,225,285.61c-1.22-2.12-2.37-4.28-3.5-6.43L219.78,276l-1.61-3.24c-.51-1.05-1-2.11-1.54-3.16s-1-2.11-1.5-3.17l-1.47-3.13c-.5-1-1-2.08-1.45-3.12-3.83-8.27-7.43-16.26-11.09-23.78q-1.35-2.84-2.75-5.55c-.91-1.82-1.85-3.63-2.78-5.34s-1.87-3.28-2.87-4.87-2-3.17-3.05-4.69a132.64,132.64,0,0,0-13.22-16.35,106.89,106.89,0,0,0-13.44-12,81.53,81.53,0,0,0-12-7.44,68.88,68.88,0,0,0-8.65-3.63c-1-.35-1.85-.62-2.4-.78l-.84-.26.87-.13c.28,0,.64-.09,1.07-.13s.92-.11,1.48-.15a53.59,53.59,0,0,1,9.87.18,67.17,67.17,0,0,1,15.2,3.58,90.4,90.4,0,0,1,18.29,9.08,113.29,113.29,0,0,1,18.9,15.25q2.31,2.31,4.56,4.81c1.48,1.68,2.95,3.42,4.4,5.26l2.09,2.66c.7.89,1.37,1.79,2.06,2.69,1.35,1.82,2.67,3.68,4,5.56,5.22,7.53,10,15.53,14.54,23.58,1.15,2,2.25,4,3.37,6,.56,1,1.12,2,1.66,3l1.65,3,3.27,5.86c1.09,1.94,2.21,3.85,3.31,5.76a231,231,0,0,0,14.05,21.53c.61.83,1.24,1.64,1.88,2.45l.94,1.2.95,1.19c1.28,1.57,2.59,3.08,3.9,4.56.65.74,1.34,1.47,2,2.16l.94,1,1.17,1.19.15.14c.11.1-.06-.05,0,0l.06.07.26.25.52.52,1.05,1,1.06,1,1.08,1a129.44,129.44,0,0,0,18.1,13.64,134.87,134.87,0,0,0,18.43,9.67,129.11,129.11,0,0,0,17,5.93,114.08,114.08,0,0,0,14,2.84c2,.27,3.79.47,5.38.62.79.07,1.53.13,2.2.17s1.3.09,1.85.12c1.11,0,2,.11,2.55.12Z"/></svg>